<svg xmlns="http://www.w3.org/2000/svg" version="1.1" xmlns:xlink="http://www.w3.org/1999/xlink" xmlns:svgjs="http://svgjs.dev/svgjs" width="800" height="800"><svg xmlns="http://www.w3.org/2000/svg" width="800" height="800" viewBox="0 0 800 800" version="1.1"><path d="M 386 87.906 C 382.975 88.896, 355.300 101.748, 324.500 116.467 C 245.348 154.293, 165.478 192.353, 116.506 215.581 C 78.984 233.379, 73.972 236.033, 69.433 240.508 C 59.792 250.014, 60.559 238.974, 60.224 373 C 60.027 451.786, 60.278 492.806, 60.985 497.500 C 62.301 506.233, 66.993 516.046, 72.475 521.527 C 74.772 523.825, 81.516 528.314, 87.462 531.503 C 105.198 541.016, 168.247 571, 170.516 571 C 175.853 571, 177.936 565.906, 177.976 552.750 C 177.997 545.847, 178.205 545, 179.875 545 C 182.132 545, 211.766 558.601, 214.250 560.777 C 215.834 562.165, 216.006 564.920, 216.060 589.905 C 216.124 619.672, 216.658 625.660, 219.619 629.812 C 220.937 631.658, 229.044 636.214, 245.518 644.363 C 268.743 655.852, 275.686 658.317, 278.822 656.190 C 281.271 654.529, 281.952 647.610, 281.976 624.173 L 282 600.846 284.923 597.923 C 288.087 594.759, 289.627 594.417, 293.257 596.071 C 298.338 598.386, 298.464 599.222, 299.009 634 C 299.611 672.412, 299.425 671.658, 309.340 675.856 C 312.728 677.290, 321.971 681.766, 329.880 685.802 C 337.790 689.839, 345.583 693.179, 347.198 693.225 C 348.970 693.275, 351.002 692.443, 352.318 691.128 C 354.446 689.001, 354.513 688.157, 355.010 657.224 C 355.457 629.474, 355.741 625.095, 357.278 622.264 C 360.321 616.664, 366.682 616.693, 369.761 622.321 C 371.301 625.137, 371.557 629.921, 372 664.178 C 372.586 709.482, 371.779 706.380, 384.383 711.826 C 397.311 717.413, 403.115 717.235, 416.751 710.832 C 426.757 706.134, 426.385 707.834, 427 664 C 427.554 624.513, 427.742 622.949, 432.374 619.105 C 434.744 617.138, 439.081 618.202, 441.401 621.321 C 443.398 624.005, 443.527 625.675, 444.064 655.821 C 444.374 673.244, 444.989 688.300, 445.431 689.278 C 446.501 691.643, 449.238 693.018, 452.684 692.920 C 457.092 692.795, 495.954 673.050, 498.429 669.678 C 500.400 666.993, 500.524 665.245, 501 633.340 L 501.500 599.823 504.306 597.411 C 509.010 593.368, 514.131 594.676, 516.585 600.548 C 517.666 603.136, 518 609.360, 518 626.903 C 518 654.252, 518.633 656.946, 525.063 656.985 C 527.864 657.001, 574.164 635.066, 577.280 632.246 C 582.287 627.715, 582.469 626.467, 583 593 L 583.500 561.500 599.419 553.691 C 608.175 549.396, 616.613 545.627, 618.169 545.316 L 621 544.750 621.024 552.625 C 621.064 565.853, 623.135 571, 628.418 571 C 631.561 571, 701.386 537.710, 717.500 528.529 C 727.360 522.911, 733.688 514.891, 737.642 503 C 739.364 497.823, 739.490 490.795, 739.784 383.500 C 739.991 307.926, 739.743 266.803, 739.048 261.500 C 737.785 251.866, 733.357 242.137, 728.575 238.489 C 726.758 237.103, 698.322 223.112, 665.385 207.397 C 632.448 191.683, 581.875 167.541, 553 153.748 C 524.125 139.956, 496.450 126.779, 491.500 124.466 C 486.550 122.153, 467.875 113.276, 450 104.739 C 432.125 96.202, 415.056 88.494, 412.068 87.609 C 404.909 85.488, 392.978 85.624, 386 87.906 M 260.500 236.152 C 245.613 245.160, 242.831 248.341, 245.232 253.610 C 247.054 257.609, 271.593 276, 275.107 276 C 279.139 276, 279.439 273.853, 278.324 252.994 C 277.327 234.352, 276.153 229.936, 272.227 230.051 C 271.277 230.078, 266 232.824, 260.500 236.152 M 523.336 232.609 C 521.998 234.652, 521.420 239.078, 520.676 252.994 C 519.562 273.835, 519.863 276, 523.878 276 C 527.322 276, 552.020 257.447, 553.812 253.513 C 555.186 250.497, 554.174 247.367, 550.856 244.375 C 547.454 241.306, 528.342 230, 526.557 230 C 525.726 230, 524.277 231.174, 523.336 232.609 M 144.035 232.934 C 142.892 235.070, 142.734 262.804, 143.824 269.894 C 144.213 272.423, 145.247 274.758, 146.259 275.394 C 148.312 276.685, 148.249 276.719, 163.443 266.205 C 175.146 258.106, 176.684 255.760, 173.300 251.163 C 170.635 247.541, 148.922 231.048, 146.785 231.022 C 145.842 231.010, 144.605 231.870, 144.035 232.934 M 639.080 239.772 C 620.038 254.325, 619.899 255.369, 635.557 266.205 C 650.751 276.719, 650.688 276.685, 652.741 275.394 C 655.136 273.888, 655.838 268.331, 655.926 250.184 C 656.002 234.513, 655.318 230.983, 652.215 231.022 C 651.272 231.033, 645.361 234.971, 639.080 239.772 M 207.500 266.960 C 176.785 272.025, 149.135 302.616, 138.540 343.252 C 134.452 358.933, 133.717 366.375, 134.253 386.658 C 134.682 402.869, 135.127 406.933, 137.438 415.764 C 146.672 451.037, 165.731 474.881, 191.643 483.580 C 198.675 485.941, 200.574 486.159, 210.971 485.800 C 221.305 485.443, 223.310 485.057, 230.318 482.079 C 254.162 471.947, 273.294 449.701, 283.812 419.881 C 289.941 402.500, 291.501 392.574, 291.491 371 C 291.481 349.540, 290.327 341.795, 284.784 326 C 276.761 303.141, 264.849 286.618, 248.799 276.088 C 237.584 268.730, 220.141 264.875, 207.500 266.960 M 563.500 269.773 C 540.932 277.475, 523.671 297.665, 513.585 328.159 C 508.905 342.307, 507 354.703, 507 371 C 507 419.175, 529.966 463.252, 563.500 479.440 C 574.733 484.862, 579.507 486, 591.017 486 C 614.796 486, 636.521 470.756, 650.873 444 C 655.924 434.583, 661.440 418.195, 663.454 406.619 C 665.472 395.026, 665.508 368.400, 663.521 357.109 C 659.021 331.543, 649.339 309.963, 634.981 293.500 C 624.160 281.093, 614.753 274.441, 601.190 269.606 C 594.949 267.381, 592.245 267.003, 582.690 267.021 C 573.158 267.039, 570.315 267.447, 563.500 269.773 M 109 354.116 C 101.889 358.485, 85.104 372.097, 84.506 373.980 C 83.729 376.429, 84.943 378.671, 89.168 382.592 C 94.361 387.410, 112.590 401, 113.860 401 C 114.487 401, 115.900 400.100, 117 399 C 118.866 397.134, 118.999 395.677, 118.985 377.250 C 118.970 356.412, 118.310 352.752, 114.475 352.233 C 113.389 352.086, 110.925 352.933, 109 354.116 M 683.141 355.750 C 681.189 357.392, 681.050 358.609, 680.888 375.500 C 680.692 395.785, 681.149 398.748, 684.607 399.616 C 686.511 400.094, 689.205 398.564, 697.962 392.028 C 708.312 384.304, 715 378.031, 715 376.047 C 715 373.345, 712.572 370.926, 701.787 362.882 C 689.437 353.671, 686.808 352.665, 683.141 355.750 M 306.035 356.934 C 304.643 359.536, 304.672 396.762, 306.070 400.771 C 306.658 402.459, 307.749 404.073, 308.493 404.359 C 310.412 405.095, 329.876 391.943, 334.845 386.552 C 337.130 384.073, 339 381.128, 339 380.008 C 339 378.887, 337.538 376.450, 335.750 374.591 C 330.726 369.368, 311.080 355, 308.961 355 C 307.921 355, 306.605 355.870, 306.035 356.934 M 475.992 364.170 C 458.106 377.709, 457.339 379.158, 464.155 386.552 C 469.124 391.943, 488.588 405.095, 490.507 404.359 C 493.207 403.323, 494 397.547, 494 378.916 C 494 359.091, 493.329 355, 490.077 355 C 488.993 355, 482.654 359.126, 475.992 364.170 M 146.667 477.667 C 146.300 478.033, 146.025 486.921, 146.056 497.417 C 146.145 527.226, 147.399 528.670, 163 516.913 C 180.005 504.097, 181.541 501.764, 176.250 496.789 C 174.738 495.367, 168.383 490.332, 162.129 485.602 C 151.569 477.613, 148.364 475.969, 146.667 477.667 M 636.871 485.602 C 630.617 490.332, 624.263 495.367, 622.750 496.789 C 617.478 501.745, 618.880 503.888, 635.914 516.907 C 651.408 528.748, 652.854 527.171, 652.944 498.332 C 652.975 488.339, 652.727 479.452, 652.393 478.582 C 651.260 475.629, 648.262 476.985, 636.871 485.602 M 267 481.488 C 264.525 482.805, 258.225 486.722, 253 490.191 C 244.041 496.141, 243.500 496.697, 243.500 499.966 C 243.500 503.241, 244.269 504.025, 257.500 514.226 C 279.341 531.067, 279.367 531.054, 278.737 503.500 C 278.492 492.772, 277.813 483.303, 277.176 481.750 C 275.766 478.308, 273.105 478.239, 267 481.488 M 521.824 481.750 C 521.187 483.303, 520.508 492.772, 520.263 503.500 C 519.632 531.112, 519.651 531.121, 541.750 513.989 C 560.203 499.683, 560.175 499.846, 545.750 490.169 C 528.109 478.336, 523.838 476.833, 521.824 481.750 M 384.596 519.031 C 371.787 525.368, 368.326 528.025, 363.866 534.946 C 358.218 543.708, 360.907 553.158, 369.807 555.824 C 375.413 557.504, 380.576 557.264, 387.839 554.987 C 395.913 552.456, 404.119 552.461, 411.500 555 C 429.362 561.145, 443.285 552.192, 437.479 538.295 C 434.048 530.083, 429.611 526.303, 415.367 519.454 C 407.984 515.904, 400.719 513.032, 399.222 513.071 C 397.725 513.110, 391.143 515.792, 384.596 519.031" stroke="none" fill="#000000" fill-rule="evenodd"></path></svg><style>@media (prefers-color-scheme: light) { :root { filter: none; } }
@media (prefers-color-scheme: dark) { :root { filter: invert(100%); } }
</style></svg>